<svg xmlns="http://www.w3.org/2000/svg" width="427.318" height="431.056" viewBox="0 0 427.318 431.056">
  <g id="Background_Complete" data-name="Background Complete" transform="translate(-36.341 -33.766)">
    <g id="Group_3" data-name="Group 3">
      <rect id="Rectangle_19" data-name="Rectangle 19" width="26.481" height="11.19" transform="translate(51.113 354.62)" fill="#ebebeb"/>
      <rect id="Rectangle_20" data-name="Rectangle 20" width="26.481" height="11.19" transform="translate(36.341 368.73)" fill="#ebebeb"/>
      <rect id="Rectangle_21" data-name="Rectangle 21" width="26.481" height="11.19" transform="translate(263.213 170.475)" fill="#ebebeb"/>
      <rect id="Rectangle_22" data-name="Rectangle 22" width="26.481" height="11.19" transform="translate(248.441 184.584)" fill="#ebebeb"/>
      <rect id="Rectangle_23" data-name="Rectangle 23" width="26.481" height="11.19" transform="translate(233.728 170.475)" fill="#ebebeb"/>
      <rect id="Rectangle_24" data-name="Rectangle 24" width="26.481" height="11.19" transform="translate(437.178 368.73)" fill="#ebebeb"/>
      <rect id="Rectangle_25" data-name="Rectangle 25" width="26.481" height="11.19" transform="translate(422.407 53.332)" fill="#ebebeb"/>
      <rect id="Rectangle_26" data-name="Rectangle 26" width="26.481" height="11.19" transform="translate(437.178 67.441)" fill="#ebebeb"/>
      <rect id="Rectangle_27" data-name="Rectangle 27" width="26.481" height="11.19" transform="translate(51.113 53.332)" fill="#ebebeb"/>
    </g>
    <g id="Group_13" data-name="Group 13">
      <g id="Group_6" data-name="Group 6">
        <g id="Group_5" data-name="Group 5">
          <path id="Path_11" data-name="Path 11" d="M93.023,143.355a28.984,28.984,0,0,1-30.487-.375,28.988,28.988,0,1,1,30.487.375Z" fill="#ebebeb"/>
          <g id="Group_4" data-name="Group 4">
            <path id="Path_12" data-name="Path 12" d="M86.932,115.307a8.822,8.822,0,1,1-8.716-8.926A8.821,8.821,0,0,1,86.932,115.307Z" fill="#fff"/>
            <path id="Path_13" data-name="Path 13" d="M93.066,139.716l-.043,3.639a28.984,28.984,0,0,1-30.487-.375l.043-3.626a15.245,15.245,0,0,1,30.487.362Z" fill="#fff"/>
          </g>
        </g>
      </g>
      <g id="Group_9" data-name="Group 9">
        <g id="Group_8" data-name="Group 8">
          <path id="Path_14" data-name="Path 14" d="M436.866,322.241a28.984,28.984,0,0,1-30.487-.375,28.988,28.988,0,1,1,30.487.375Z" fill="#ebebeb"/>
          <g id="Group_7" data-name="Group 7">
            <rect id="Rectangle_28" data-name="Rectangle 28" width="30.78" height="21.108" transform="translate(406.532 289.135)" fill="#fff"/>
            <path id="Path_15" data-name="Path 15" d="M417.443,284.56h-9.137l-1.774,3.87h12.686Z" fill="#fff"/>
          </g>
        </g>
      </g>
      <g id="Group_12" data-name="Group 12">
        <g id="Group_11" data-name="Group 11">
          <path id="Path_16" data-name="Path 16" d="M196.338,390.335a28.988,28.988,0,0,1-30.487-.374,28.988,28.988,0,1,1,30.487.374Z" fill="#ebebeb"/>
          <g id="Group_10" data-name="Group 10">
            <path id="Path_17" data-name="Path 17" d="M197.063,368.55a2.472,2.472,0,0,1-1.208-2.29q.02-.381.019-.765c0-.258-.006-.515-.019-.769a2.463,2.463,0,0,1,1.2-2.283l2.76-1.592-5.187-8.99-2.759,1.591a2.47,2.47,0,0,1-2.588-.091,14.545,14.545,0,0,0-1.338-.775,2.467,2.467,0,0,1-1.363-2.192v-3.178H176.2v3.178a2.465,2.465,0,0,1-1.363,2.192,14.678,14.678,0,0,0-1.338.775,2.469,2.469,0,0,1-2.587.091l-2.759-1.591-5.187,8.99,2.771,1.6a2.462,2.462,0,0,1,1.2,2.281c-.013.253-.019.508-.019.763s.006.511.019.765a2.468,2.468,0,0,1-1.209,2.289l-2.763,1.591,5.187,8.99,2.751-1.59a2.468,2.468,0,0,1,2.587.088,14.424,14.424,0,0,0,1.344.777A2.464,2.464,0,0,1,176.2,380.6v3.177h10.382V380.6a2.466,2.466,0,0,1,1.365-2.193,14.3,14.3,0,0,0,1.344-.777,2.469,2.469,0,0,1,2.587-.088l2.752,1.59,5.187-8.99ZM181.4,374a8.5,8.5,0,1,1,8.5-8.506A8.509,8.509,0,0,1,181.4,374Z" fill="#fff"/>
            <path id="Path_18" data-name="Path 18" d="M187.3,365.495a5.9,5.9,0,1,1-5.9-5.9A5.9,5.9,0,0,1,187.3,365.495Z" fill="#fff"/>
          </g>
        </g>
      </g>
    </g>
  </g>
  <g id="Shadow" transform="translate(-36.341 -33.766)">
    <g id="Group_14" data-name="Group 14">
      <ellipse id="Ellipse_2" data-name="Ellipse 2" cx="197.438" cy="19.185" rx="197.438" ry="19.185" transform="translate(52.562 426.452)" fill="#ebebeb"/>
    </g>
  </g>
  <g id="Plant" transform="translate(-36.341 -33.766)">
    <g id="Group_26" data-name="Group 26">
      <g id="Group_23" data-name="Group 23">
        <g id="Group_16" data-name="Group 16">
          <path id="Path_20" data-name="Path 20" d="M461.472,332.217c-10.288,13.934-21.016,30.1-23.628,47.578-.031.265.392.351.454.088a103.952,103.952,0,0,1,4.549-13.99c6.764-1.861,13.4-3.39,16.955-10.1,3.623-6.9,3.163-15.9,2.474-23.417C462.228,331.969,461.682,331.949,461.472,332.217Z" fill="#ffc727"/>
          <g id="Group_15" data-name="Group 15">
            <path id="Path_21" data-name="Path 21" d="M442.949,365.762c4.622-10.372,10.556-20.786,18.1-29.314.051-.058.13.025.083.083-4.937,6.074-8.689,12.689-12.353,19.42,3.406-3.459,7.139-6.556,10.366-10.224.063-.071.163.032.1.1-3.205,3.844-6.705,8.023-10.878,10.869q-1.682,3.1-3.394,6.208c.281-.157.57-.3.858-.439.051-.025.1.05.044.076-.318.161-.633.331-.961.47-.542.98-1.079,1.961-1.637,2.939C443.154,366.172,442.852,365.981,442.949,365.762Z" fill="#263238"/>
            <path id="Path_22" data-name="Path 22" d="M446.387,362.144a60.849,60.849,0,0,0,7.9-5.273c.067-.054.165.039.1.1a41.692,41.692,0,0,1-7.881,5.369C446.373,362.4,446.261,362.216,446.387,362.144Z" fill="#263238"/>
          </g>
        </g>
        <g id="Group_18" data-name="Group 18">
          <path id="Path_23" data-name="Path 23" d="M436.654,377.2c.021.212.38.208.376-.017.053-5.754.005-11.535.091-17.316,1.475-2.975,4.639-4.621,6.839-7.005a30.63,30.63,0,0,0,4.1-5.715,41.04,41.04,0,0,0,4.761-15.874c.608-6.155-1.728-26.466-4.323-25.76-1.345.365-5.7,10.425-6.854,13.751a95.856,95.856,0,0,0-4.1,16.862C435.449,349.666,435.624,363.571,436.654,377.2Z" fill="#ffc727"/>
          <g id="Group_17" data-name="Group 17">
            <path id="Path_24" data-name="Path 24" d="M436.613,352.374l.026-.022c.315-7.281,1.955-14.634,3.491-21.695,1.654-7.608,3.587-14.771,7.5-21.557a.113.113,0,0,1,.194.114A79.956,79.956,0,0,0,441.8,325.76c.262-.411.58-.8.853-1.187.107-.152.359-.01.253.148a10.65,10.65,0,0,1-1.223,1.728.1.1,0,0,1-.051.023c-1.348,5.437-2.315,11-3.143,16.548.062-.071.122-.146.184-.215.043-.045.114.013.085.066-.1.184-.218.366-.33.55-.417,2.816-.8,5.627-1.192,8.413,5.014-4.286,9.3-9.338,11.711-15.562.012-.029.058-.017.048.013-2.367,6.456-6.1,12.2-11.839,16.112q-.158,1.127-.317,2.249c-.022.155-.269.114-.268-.036,0-.664.034-1.329.06-1.993A.155.155,0,0,1,436.613,352.374Z" fill="#263238"/>
            <path id="Path_25" data-name="Path 25" d="M438.975,341.825a116.122,116.122,0,0,0,10.215-17.594c.031-.071.152-.02.125.052a57.1,57.1,0,0,1-10.148,17.69C439.075,342.076,438.9,341.941,438.975,341.825Z" fill="#263238"/>
            <path id="Path_26" data-name="Path 26" d="M444.067,322.818c1.587-2.808,3.261-5.542,4.755-8.406.042-.08.152-.009.118.069a43.677,43.677,0,0,1-4.628,8.48C444.207,323.106,443.975,322.98,444.067,322.818Z" fill="#263238"/>
            <path id="Path_27" data-name="Path 27" d="M443.447,324.04a.025.025,0,0,1,0,.049A.025.025,0,0,1,443.447,324.04Z" fill="#263238"/>
          </g>
        </g>
        <g id="Group_20" data-name="Group 20">
          <path id="Path_28" data-name="Path 28" d="M432.759,360.557a58.63,58.63,0,0,1-1.344,11.337c.059.409.118.819.178,1.241a54.047,54.047,0,0,0,2.028-12.637.388.388,0,0,0,.017-.391V360.1a83.686,83.686,0,0,0-1.27-17.122c-1.781-10.576-5.675-20.725-13.05-28.651a.527.527,0,0,0-.815.168c-2.976,7.567-1.938,16.6.6,24.147a44.21,44.21,0,0,0,5.849,11.468C427.478,353.662,430.7,356.672,432.759,360.557Z" fill="#ffc727"/>
          <g id="Group_19" data-name="Group 19">
            <path id="Path_29" data-name="Path 29" d="M420.189,317.864c6.99,11.344,11.853,24.793,12.448,38.194.01.237-.389.3-.422.057-.166-1.2-.35-2.4-.543-3.586,0,0-.008,0-.012,0a45.768,45.768,0,0,1-7.931-9.153c-.036-.061.052-.132.1-.077a96.182,96.182,0,0,0,7.7,8.385q-.751-4.444-1.8-8.752c-.188-.214-.37-.434-.553-.649-.121-.143.081-.35.207-.208.055.062.112.124.168.186a101.117,101.117,0,0,0-3.654-11.6c-1.78-2.122-3.769-3.956-5.065-6.513a.054.054,0,0,1,.093-.055c1.042,1.463,2.05,2.934,3.232,4.291.471.54.988,1.045,1.477,1.573a89.43,89.43,0,0,0-5.723-11.928A.156.156,0,0,1,420.189,317.864Z" fill="#263238"/>
            <path id="Path_30" data-name="Path 30" d="M421.6,331.857c2.26,3.041,4.834,5.942,6.934,9.085.061.09-.071.182-.146.112a46.418,46.418,0,0,1-6.94-9.108C421.388,331.848,421.536,331.769,421.6,331.857Z" fill="#263238"/>
            <path id="Path_31" data-name="Path 31" d="M428.853,341.646l.1.1a.073.073,0,0,1-.1.1l-.1-.1A.073.073,0,0,1,428.853,341.646Z" fill="#263238"/>
          </g>
        </g>
        <g id="Group_22" data-name="Group 22">
          <path id="Path_32" data-name="Path 32" d="M409.238,339.671a34.8,34.8,0,0,0,7.376,17.305,18.372,18.372,0,0,0,5.981,4.668c2.59,1.281,5.3,2.757,7.983,3.809a52.435,52.435,0,0,1,2.826,10.04c.087-.292.173-.6.259-.889-1.72-14.777-11.282-27.407-23.513-35.514A.593.593,0,0,0,409.238,339.671Z" fill="#ffc727"/>
          <g id="Group_21" data-name="Group 21">
            <path id="Path_33" data-name="Path 33" d="M413.464,344.037c-.086-.076.03-.231.124-.161a50.035,50.035,0,0,1,15.585,19.206c.089.2-.189.38-.3.178-.568-1-1.148-1.965-1.738-2.917h-.008c-2.792-.525-5.436-2.49-7.508-4.355-.056-.05.027-.133.083-.083a17.146,17.146,0,0,0,3.532,2.481c1.138.578,2.363.942,3.548,1.4-1.035-1.642-2.113-3.216-3.239-4.744a32.61,32.61,0,0,1-8.39-4.716c-.079-.059-.009-.189.079-.136a83.444,83.444,0,0,0,7.8,4.169,69.968,69.968,0,0,0-5.506-6.419c-.948-.5-1.911-1-2.83-1.54-.075-.044-.026-.172.06-.143a10.12,10.12,0,0,1,2.172,1.067C415.818,346.214,414.681,345.112,413.464,344.037Z" fill="#263238"/>
            <path id="Path_34" data-name="Path 34" d="M413.724,349.139a3.548,3.548,0,0,1,.47.336c.045.04-.012.1-.059.077a3.43,3.43,0,0,1-.49-.278C413.56,349.22,413.639,349.085,413.724,349.139Z" fill="#263238"/>
          </g>
        </g>
      </g>
      <g id="Group_25" data-name="Group 25">
        <g id="Group_24" data-name="Group 24">
          <path id="Path_35" data-name="Path 35" d="M452.751,407.493H419.236l2.706-30.521.594-6.731h26.916l.594,6.731Z" fill="#455a64"/>
          <path id="Path_36" data-name="Path 36" d="M450.045,376.972h-28.1l.594-6.731h26.916Z" fill="#263238"/>
        </g>
        <rect id="Rectangle_29" data-name="Rectangle 29" width="30.123" height="6.661" transform="translate(420.932 365.535)" fill="#455a64"/>
      </g>
    </g>
  </g>
  <g id="Device" transform="translate(-36.341 -33.766)">
    <g id="Group_41" data-name="Group 41" style="isolation: isolate">
      <g id="Group_27" data-name="Group 27">
        <path id="Path_37" data-name="Path 37" d="M430.82,145.15l-41.65,194.3a10.276,10.276,0,0,1-11.64,8.03l-94.36-16.63a9.222,9.222,0,0,1-5.5-3.19l-3.81-4.59a9.151,9.151,0,0,0,5.5,3.18l94.35,16.64a10.278,10.278,0,0,0,11.64-8.04L427,140.56a9.627,9.627,0,0,0-1.95-8.22l3.82,4.6A9.6,9.6,0,0,1,430.82,145.15Z" fill="#263238"/>
      </g>
      <g id="Group_28" data-name="Group 28">
        <path id="Path_38" data-name="Path 38" d="M419.53,129.15l-94.35-16.64a10.271,10.271,0,0,0-11.63,8.04L271.9,314.85a9.4,9.4,0,0,0,7.46,11.4l94.35,16.64a10.278,10.278,0,0,0,11.64-8.04L427,140.56A9.389,9.389,0,0,0,419.53,129.15Zm-54.83-1.57a.7.7,0,0,1,.79-.54l10.67,1.88a.643.643,0,0,1,.52.78.7.7,0,0,1-.8.54l-10.67-1.88A.639.639,0,0,1,364.7,127.58ZM420,143.34c-.02.2-.04.41-.54,3.53l-.7,3.27-13.23,61.72-1.63,7.57-.87,4.09-.43,1.98-6.39,29.82-1.62,7.58-2.14,9.94-.42,1.98-6.36,29.65-.42,1.99-.54,2.5-3.62,16.9-.41,1.92c-1.1,5.12-5.81,8.58-10.55,7.75l-84.41-14.88c-4.73-.84-7.67-5.65-6.57-10.76l38.79-180.92c1.13-5.3,2.7-7.85,4.6-8.98,1.83-1.1,3.97-.85,6.3-.44l16.92,2.98c.97.18,1.54,1.44,1.24,2.82l-.13.6c-.69,3.25,1.08,3.56,3.64,4.02l4.97.87,33.75,5.95c2.19.39,3.96.69,4.65-2.55l.13-.6a2.943,2.943,0,0,1,1.41-2.03,1.518,1.518,0,0,1,.93-.16l16.9,2.98a9.874,9.874,0,0,1,5.24,2.43C419.6,138.14,420.2,140.06,420,143.34Z" fill="#37474f"/>
        <path id="Path_39" data-name="Path 39" d="M376.68,129.7a.7.7,0,0,1-.8.54l-10.67-1.88a.639.639,0,0,1-.51-.78.7.7,0,0,1,.79-.54l10.67,1.88A.643.643,0,0,1,376.68,129.7Z" fill="#263238"/>
      </g>
      <g id="Group_40" data-name="Group 40">
        <g id="Group_30" data-name="Group 30">
          <g id="Group_29" data-name="Group 29">
            <path id="Path_40" data-name="Path 40" d="M420.02,143.01c-.04.54-.06.74-.08.95l-1.18,6.18-13.23,61.72-1.63,7.57-.87,4.09-.43,1.98-6.39,29.82-1.62,7.58-2.14,9.94-.42,1.98-6.36,29.65-.42,1.99-.54,2.5-3.62,16.9-.41,1.92c-1.1,5.12-5.81,8.58-10.54,7.75l-19.49-3.44-42.39-7.47-6.27-1.11-4.98-.87-11.28-1.99c-4.73-.84-7.67-5.65-6.57-10.77l2.67-12.48.43-1.97,2.13-9.95,1.63-7.58,6.39-29.81.42-1.99.88-4.09,1.62-7.58,13.23-61.71,3.62-16.89,3.62-16.86.42-1.98,1.72-8.02c1.14-5.29,2.71-7.85,4.6-8.98,1.83-1.1,3.97-.85,6.3-.44l16.92,2.98c.97.18,1.54,1.44,1.24,2.82l-.13.6c-.69,3.24,1.08,3.56,3.26,3.95l.38.07,4.97.87,33.75,5.95c2.2.39,3.96.7,4.66-2.55l.13-.6a2.9,2.9,0,0,1,1.4-2.03,1.518,1.518,0,0,1,.93-.16l16.9,2.98c.56.1,1.09.22,1.61.36a7.88,7.88,0,0,1,2.94,1.41c.38.33.47.42.57.52C419.6,138.14,420.2,140.06,420.02,143.01Z" fill="#455a64"/>
          </g>
        </g>
        <g id="Group_39" data-name="Group 39" opacity="0.1">
          <g id="Group_31" data-name="Group 31">
            <path id="Path_41" data-name="Path 41" d="M355.478,130.842,315.8,138.969l.423-1.974,34.288-7.029Z" fill="#fff"/>
          </g>
          <g id="Group_32" data-name="Group 32">
            <path id="Path_42" data-name="Path 42" d="M414.862,134.792A7.962,7.962,0,0,1,417.8,136.2a7,7,0,0,1,.565.527c1.23,1.414,1.832,3.331,1.653,6.288-.039.532-.058.739-.081.949l-1.183,6.18L308.562,172.72l3.621-16.888Z" fill="#fff"/>
          </g>
          <g id="Group_33" data-name="Group 33">
            <path id="Path_43" data-name="Path 43" d="M405.528,211.856l-1.624,7.576-110.2,22.578,1.624-7.576Z" fill="#fff"/>
          </g>
          <g id="Group_34" data-name="Group 34">
            <path id="Path_44" data-name="Path 44" d="M403.027,223.522,402.6,225.5l-110.2,22.584.426-1.987Z" fill="#fff"/>
          </g>
          <g id="Group_35" data-name="Group 35">
            <path id="Path_45" data-name="Path 45" d="M392.454,272.843l-.425,1.981L281.834,297.4l.423-1.974Z" fill="#fff"/>
          </g>
          <g id="Group_36" data-name="Group 36">
            <path id="Path_46" data-name="Path 46" d="M396.211,255.318l-1.626,7.582-110.2,22.578,1.626-7.582Z" fill="#fff"/>
          </g>
          <g id="Group_37" data-name="Group 37">
            <path id="Path_47" data-name="Path 47" d="M385.673,304.471l-.426,1.987-83.257,17.056-4.976-.878Z" fill="#fff"/>
          </g>
          <g id="Group_38" data-name="Group 38">
            <path id="Path_48" data-name="Path 48" d="M384.711,308.96l-3.623,16.9-30.441,6.232-42.388-7.474Z" fill="#fff"/>
          </g>
        </g>
      </g>
    </g>
  </g>
  <g id="Icons" transform="translate(-36.341 -33.766)">
    <g id="Group_58" data-name="Group 58">
      <g id="Group_43" data-name="Group 43">
        <circle id="Ellipse_3" data-name="Ellipse 3" cx="35.388" cy="35.388" r="35.388" transform="matrix(0.158, -0.987, 0.987, 0.158, 317.456, 103.649)" fill="#ffc727"/>
        <g id="Group_42" data-name="Group 42">
          <circle id="Ellipse_4" data-name="Ellipse 4" cx="7.58" cy="7.58" r="7.58" transform="translate(350.418 69.211)" fill="#fff"/>
          <path id="Path_49" data-name="Path 49" d="M336.962,63.921V89.646h42.084V63.921ZM358,86.551a9.761,9.761,0,1,1,9.775-9.761A9.769,9.769,0,0,1,358,86.551Zm18.582-18.117H372.53V66.1h4.049Z" fill="#fff"/>
          <path id="Path_50" data-name="Path 50" d="M368.459,63.923H347.546l2.073-4.939h16.769Z" fill="#fff"/>
          <circle id="Ellipse_5" data-name="Ellipse 5" cx="7.58" cy="7.58" r="7.58" transform="translate(350.418 69.211)" fill="#455a64"/>
          <circle id="Ellipse_6" data-name="Ellipse 6" cx="7.58" cy="7.58" r="7.58" transform="translate(350.418 69.211)" fill="#fff"/>
          <rect id="Rectangle_30" data-name="Rectangle 30" width="4.005" height="1.163" transform="translate(338.368 62.013)" fill="#fff"/>
        </g>
      </g>
      <g id="Group_46" data-name="Group 46">
        <circle id="Ellipse_7" data-name="Ellipse 7" cx="35.388" cy="35.388" r="35.388" transform="translate(212.859 85.32)" fill="#ffc727"/>
        <circle id="Ellipse_8" data-name="Ellipse 8" cx="39.616" cy="39.616" r="39.616" transform="translate(208.631 81.093)" fill="none" stroke="#ffc727" stroke-miterlimit="10" stroke-width="1" stroke-dasharray="3"/>
        <g id="Group_45" data-name="Group 45">
          <g id="Group_44" data-name="Group 44">
            <path id="Path_51" data-name="Path 51" d="M268.819,107.662c-1.772,1.364-3.5,2.795-5.262,4.2s-3.477,2.836-5.208,4.281q-2.9,2.393-5.78,4.853v.014c-1.445,1.213-2.89,2.453-4.322,3.68-1.431-1.227-2.876-2.453-4.321-3.68h-.014c-1.908-1.65-3.844-3.272-5.766-4.867-1.732-1.445-3.477-2.863-5.222-4.281s-3.476-2.835-5.248-4.2Z" fill="#fff"/>
            <path id="Path_52" data-name="Path 52" d="M268.819,107.662v26.093H227.676V107.662c1.663,1.6,3.353,3.122,5.03,4.676s3.381,3.068,5.071,4.567q2.66,2.393,5.344,4.717c.055.041.109.1.164.136s.109.1.164.137c-.109.068-.219.122-.328.191-1.158.654-2.276,1.349-3.38,2.072-1.391.886-2.754,1.813-4.117,2.754-1.336.94-2.672,1.908-3.995,2.9s-2.6,2.018-3.858,3.108c1.459-.79,2.863-1.663,4.254-2.562s2.74-1.814,4.089-2.741c1.35-.954,2.7-1.908,4.008-2.917,1.077-.8,2.127-1.636,3.163-2.508.082-.068.177-.15.259-.218q2.229,1.962,4.471,3.9l.232.205.232-.205c1.5-1.295,3-2.6,4.5-3.885l.245.205c1.023.872,2.072,1.7,3.149,2.508,1.309,1.009,2.645,1.963,3.995,2.917,1.363.927,2.713,1.855,4.1,2.741s2.8,1.772,4.253,2.562c-1.254-1.09-2.549-2.113-3.871-3.108s-2.645-1.963-3.995-2.9-2.713-1.868-4.1-2.754c-1.1-.723-2.222-1.418-3.381-2.072-.1-.055-.2-.123-.313-.178.054-.04.109-.095.163-.136a1.63,1.63,0,0,1,.15-.15q2.679-2.331,5.33-4.7,2.557-2.27,5.085-4.581C265.465,110.784,267.156,109.257,268.819,107.662Z" fill="#fff"/>
          </g>
        </g>
      </g>
      <g id="Group_48" data-name="Group 48">
        <circle id="Ellipse_9" data-name="Ellipse 9" cx="35.388" cy="35.388" r="35.388" transform="translate(318.055 412.594) rotate(-77.525)" fill="#ffc727"/>
        <g id="Group_47" data-name="Group 47">
          <path id="Path_53" data-name="Path 53" d="M381.218,403.864H339.286V367.507h41.932Zm-39.2-2.727h36.479v-30.9H342.013Z" fill="#fff"/>
          <path id="Path_54" data-name="Path 54" d="M340.65,402.5l11.377-10.9,10.314,10.9Z" fill="#fff"/>
          <path id="Path_55" data-name="Path 55" d="M355.259,402.5l13.51-17.073L379.855,402.5Z" fill="#fff"/>
          <path id="Path_56" data-name="Path 56" d="M355.526,384.415a4.031,4.031,0,1,1-4.031-4.031A4.031,4.031,0,0,1,355.526,384.415Z" fill="#fff"/>
        </g>
      </g>
      <g id="Group_50" data-name="Group 50">
        <circle id="Ellipse_10" data-name="Ellipse 10" cx="35.388" cy="35.388" r="35.388" transform="translate(214.449 305.493)" fill="#ffc727"/>
        <g id="Group_49" data-name="Group 49">
          <ellipse id="Ellipse_11" data-name="Ellipse 11" cx="18.889" cy="16.369" rx="18.889" ry="16.369" transform="translate(230.948 323.303)" fill="#fff"/>
          <path id="Path_57" data-name="Path 57" d="M236.153,348.939l-3.392,9.52,12.006-3.735Z" fill="#fff"/>
        </g>
      </g>
      <g id="Group_51" data-name="Group 51">
        <circle id="Ellipse_12" data-name="Ellipse 12" cx="35.388" cy="35.388" r="35.388" transform="translate(168.055 195.736)" fill="#ffc727"/>
        <path id="Path_58" data-name="Path 58" d="M217.229,223.463c-.687-6.9-5.439-13.759-13.791-13.759s-13.094,6.864-13.781,13.759c-1.056,10.644,6.125,20.285,13.781,29.081C211.1,243.748,218.285,234.107,217.229,223.463Zm-13.791,7.656a7.55,7.55,0,1,1,7.56-7.55A7.548,7.548,0,0,1,203.438,231.119Z" fill="#fff"/>
      </g>
      <g id="Group_57" data-name="Group 57">
        <g id="Group_52" data-name="Group 52">
          <line id="Line_2" data-name="Line 2" y2="16.191" transform="translate(358.004 114.19)" fill="none" stroke="#ffc727" stroke-miterlimit="10" stroke-width="1" stroke-dasharray="3"/>
        </g>
        <g id="Group_53" data-name="Group 53">
          <line id="Line_3" data-name="Line 3" x2="11.449" y2="11.449" transform="translate(276.686 148.617)" fill="none" stroke="#ffc727" stroke-miterlimit="10" stroke-width="1" stroke-dasharray="3"/>
        </g>
        <g id="Group_54" data-name="Group 54">
          <line id="Line_4" data-name="Line 4" x2="16.191" transform="translate(243.529 230.46)" fill="none" stroke="#ffc727" stroke-miterlimit="10" stroke-width="1" stroke-dasharray="3"/>
        </g>
        <g id="Group_55" data-name="Group 55">
          <line id="Line_5" data-name="Line 5" y1="11.449" x2="11.449" transform="translate(277.956 300.33)" fill="none" stroke="#ffc727" stroke-miterlimit="10" stroke-width="1" stroke-dasharray="3"/>
        </g>
        <g id="Group_56" data-name="Group 56">
          <line id="Line_6" data-name="Line 6" y1="16.191" transform="translate(359.8 328.745)" fill="none" stroke="#ffc727" stroke-miterlimit="10" stroke-width="1" stroke-dasharray="3"/>
        </g>
      </g>
    </g>
  </g>
  <g id="Character" transform="translate(-36.341 -33.766)">
    <g id="Group_103" data-name="Group 103">
      <g id="Group_67" data-name="Group 67">
        <g id="Group_62" data-name="Group 62">
          <g id="Group_59" data-name="Group 59">
            <path id="Path_59" data-name="Path 59" d="M187.392,445.373c-2.239.723-66.079-.1-68.487-1.681-.926-.584-1.458-62.76-1.458-62.76l42.7.428-1.617,41.6S182.83,434.2,185.3,436.216C187.745,438.22,189.632,444.66,187.392,445.373Z" fill="#ad6359"/>
            <path id="Path_60" data-name="Path 60" d="M168.209,427.323c-.166-.049-.254-.1-.263-.147C167.946,427.176,168.043,427.225,168.209,427.323Z" fill="#ffc727"/>
            <path id="Path_61" data-name="Path 61" d="M187.388,445.376c-2.235.716-66.073-.106-68.482-1.683-.319-.2-.59-7.7-.813-17.445,9.347,3.309,46.839,11.069,54.57,10.469,6.956-.542.658-6.144-1.132-7.625,6.221,2.981,12.578,6.144,13.768,7.121C187.747,438.216,189.633,444.66,187.388,445.376Z" fill="#263238"/>
          </g>
          <g id="Group_61" data-name="Group 61">
            <path id="Path_62" data-name="Path 62" d="M104.344,197.038s9.585,107.874,11.148,116.106c.361,1.875.586,12.071.732,25.176.332,28.6.134,80.169.134,80.169h45s-1.335-89.358-3.328-105.8S143.3,197.038,143.3,197.038Z" fill="#455a64"/>
            <g id="Group_60" data-name="Group 60">
              <path id="Path_63" data-name="Path 63" d="M159.326,410.649c-7.022-.146-5.005-.2-12.028-.271-3.437-.033-26.021-.23-29.231.3a.075.075,0,0,0,0,.143c3.211.532,25.794.335,29.231.3,7.023-.068,5.006-.125,12.028-.271A.1.1,0,0,0,159.326,410.649Z" fill="#263238"/>
              <path id="Path_64" data-name="Path 64" d="M124.909,359.566q-.075-9.791-.146-19.58c-.046-6.322-.037-12.65-.338-18.966-.609-12.788-3.2-25.362-5.049-38.006s-3.384-25.345-4.778-38.053c-1.564-14.257-2.946-28.534-4.411-42.8-.01-.1-.161-.1-.152,0,2.12,25.475,4.486,50.943,8.013,76.266q1.316,9.449,2.875,18.858c1.05,6.351,2.1,12.705,2.6,19.128.491,6.286.57,12.6.635,18.9q.1,9.783.195,19.568c.14,14.488.281,36.79.421,51.279a.218.218,0,0,0,.435-.011C125.105,393.225,125.007,372.489,124.909,359.566Z" fill="#263238"/>
            </g>
          </g>
          <path id="Path_65" data-name="Path 65" d="M94.856,197.038s19.073,107.874,20.636,116.106c.361,1.875.586,12.071.732,25.176l.01.04,21.445-141.322Z" fill="#263238"/>
        </g>
        <g id="Group_66" data-name="Group 66">
          <g id="Group_63" data-name="Group 63">
            <path id="Path_66" data-name="Path 66" d="M133.515,452.544c-2.3.51-65.779-6.287-68.03-8.082-.867-.667,4.421-62.621,4.421-62.621l42.478,4.421-5.5,41.263s23.136,13.471,25.4,15.705C134.535,445.455,135.812,452.044,133.515,452.544Z" fill="#ad6359"/>
            <path id="Path_67" data-name="Path 67" d="M116.105,432.778c-.161-.064-.244-.121-.249-.17C115.856,432.608,115.949,432.665,116.105,432.778Z" fill="#ffc727"/>
            <path id="Path_68" data-name="Path 68" d="M133.516,452.546c-2.3.512-65.783-6.289-68.028-8.079-.309-.242.165-8.3.91-18.567,9.936,4.411,45.068,15.3,52.663,15.451,5.254.107,3.3-3.386,1.316-5.815,5.524,3.338,10.875,6.667,11.91,7.692C134.532,445.453,135.809,452.042,133.516,452.546Z" fill="#263238"/>
          </g>
          <g id="Group_65" data-name="Group 65">
            <path id="Path_69" data-name="Path 69" d="M109.847,420.921l-44.958-1.906s12.271-98.658,12.5-104.721c.337-9.016,4.661-46.222,8.29-76.345,0,0-6.882-16.31,6-40.947h51.667s-3.463,23.444-9.39,38.309a68.924,68.924,0,0,0-11.488,5.244s-5.142,67.165-5.335,75.543C116.751,332.658,109.847,420.921,109.847,420.921Z" fill="#455a64"/>
            <path id="Path_70" data-name="Path 70" d="M108.651,412.68c-7.009-.443-4.991-.415-12-.78-3.432-.178-25.987-1.332-29.218-.936a.075.075,0,0,0-.006.143c3.186.667,25.758,1.427,29.192,1.539,7.02.23,5.007.088,12.029.239A.1.1,0,0,0,108.651,412.68Z" fill="#263238"/>
            <g id="Group_64" data-name="Group 64">
              <path id="Path_71" data-name="Path 71" d="M135.914,234.292a85.326,85.326,0,0,0-13.448,6.263.152.152,0,0,0,.126.277c4.53-1.946,9.149-3.807,13.567-6A.3.3,0,0,0,135.914,234.292Z" fill="#263238"/>
              <path id="Path_72" data-name="Path 72" d="M137.354,203.207c-.012-.157-.287-.191-.286-.022a150.753,150.753,0,0,1-.76,15.136c-.21,2.333-2.087,15.229-6.134,14.289-.677-.158-1.023-.825-1.129-1.846a16.211,16.211,0,0,1,.537-3.955c.449-2.7.81-5.407,1.042-8.134a74.014,74.014,0,0,0-.165-15.256.131.131,0,0,0-.261.015,139.851,139.851,0,0,1-1.232,21.059c-.506,3.354-2.195,8.4,1.312,8.92,3.574.526,5.885-7.933,6.321-10.246A77.26,77.26,0,0,0,137.354,203.207Z" fill="#263238"/>
              <path id="Path_73" data-name="Path 73" d="M130.282,232.957a21.683,21.683,0,0,0-.91,2.673,6.069,6.069,0,0,0-.378,2.2c.015.142.2.156.28.06a7.748,7.748,0,0,0,.94-2.138c.308-.827.634-1.648.917-2.483A.452.452,0,0,0,130.282,232.957Z" fill="#263238"/>
            </g>
            <path id="Path_74" data-name="Path 74" d="M73.21,404.752S91.55,241.12,91.55,239.6,84.9,225,96.269,199.585" fill="none" stroke="#263238" stroke-miterlimit="10" stroke-width="1"/>
          </g>
        </g>
      </g>
      <g id="Group_102" data-name="Group 102">
        <g id="Group_68" data-name="Group 68">
          <path id="Path_75" data-name="Path 75" d="M123.093,103.106c-1.235.152-6.6-.5-10.208,4.373-3.411,4.605-4.664,18.655-5.4,21.713s-4.757,3.5-5.719,7.054c-.828,3.054,1.394,4.188,1.613,6.433.17,1.74-1.594,4.343-.018,6.925,1.433,2.347,3.976,1.863,5.506,2.6s2.47,4.295,5.305,5.266,5.357-1.608,6.861-1.585,3.272,4.651,8.19,4.269,6.355-4.536,8.389-5.347,7.122.626,9.459-1.9,2.753-5.91,3.806-7.152,3.242-1.033,4.558-3.912-1.358-4.721-1.725-7.226c-.256-1.744,1.3-3.338.223-6.006-1.48-3.668-5.964-2.9-7.655-6.671-1.327-2.954-4.041-15.787-11.773-18.977C129.161,100.764,123.093,103.106,123.093,103.106Z" fill="#263238"/>
          <path id="Path_76" data-name="Path 76" d="M107.634,128.457a4.39,4.39,0,0,1-1.32,1.642l-1.607,1.375a13.238,13.238,0,0,0-2.843,2.979,4.241,4.241,0,0,0-.491,3.729,6.426,6.426,0,0,0,1.021,1.71,7.552,7.552,0,0,1,1.206,1.872,3.632,3.632,0,0,1-.21,2.31c-.232.682-.488,1.328-.682,1.984a5.011,5.011,0,0,0,.11,3.852,2.874,2.874,0,0,0,1.339,1.328,5.283,5.283,0,0,0,1.96.433c.689.053,1.393.033,2.1.047a3.556,3.556,0,0,1,2.046.476,3.755,3.755,0,0,0-2.041-.262c-.7.046-1.4.126-2.118.134a5.637,5.637,0,0,1-2.156-.363,3.454,3.454,0,0,1-1.677-1.5,5.433,5.433,0,0,1-.269-4.349c.194-.7.446-1.365.655-2.02a2.935,2.935,0,0,0,.18-1.812c-.417-1.123-1.679-2.132-2.153-3.593a4.733,4.733,0,0,1,.663-4.316,13.507,13.507,0,0,1,3.116-2.948l1.715-1.231A4.771,4.771,0,0,0,107.634,128.457Z" fill="#263238"/>
          <path id="Path_77" data-name="Path 77" d="M141.634,110.23a61.725,61.725,0,0,1,3.2,6.853c.524,1.14,1.008,2.3,1.607,3.38a8.409,8.409,0,0,0,1,1.492,1.16,1.16,0,0,0,.29.278,1.409,1.409,0,0,0,.337.224c.264.141.544.267.827.39a36.136,36.136,0,0,1,3.452,1.622,6.446,6.446,0,0,1,2.756,2.785,4,4,0,0,1,.384,1.973,5.175,5.175,0,0,1-.583,1.874,8.124,8.124,0,0,0-1.194,3.521,7.679,7.679,0,0,1,.833-3.68,4.847,4.847,0,0,0,.436-1.742,3.441,3.441,0,0,0-.432-1.672,6.252,6.252,0,0,0-2.564-2.422,36.592,36.592,0,0,0-3.416-1.524c-.291-.134-.584-.272-.872-.433a2.755,2.755,0,0,1-.827-.682,9.025,9.025,0,0,1-1.072-1.657,30.779,30.779,0,0,1-1.533-3.492l-1.288-3.561A32.868,32.868,0,0,0,141.634,110.23Z" fill="#263238"/>
          <path id="Path_78" data-name="Path 78" d="M152.08,144.909a6.594,6.594,0,0,0-.823,2.529c-.194.88-.387,1.766-.627,2.648a13.153,13.153,0,0,1-.957,2.6,5.944,5.944,0,0,1-1.81,2.224,7.527,7.527,0,0,1-5.524.623c-.9-.169-1.773-.385-2.652-.533a5.605,5.605,0,0,0-2.645,0,5.223,5.223,0,0,1,2.693-.391c.913.072,1.807.221,2.695.312,1.741.194,3.6.231,4.981-.676A5.328,5.328,0,0,0,149,152.327a16.369,16.369,0,0,0,1.043-2.426c.3-.84.562-1.7.836-2.565.147-.429.3-.858.469-1.282A2.626,2.626,0,0,1,152.08,144.909Z" fill="#263238"/>
        </g>
        <g id="Group_77" data-name="Group 77">
          <g id="Group_76" data-name="Group 76">
            <g id="Group_72" data-name="Group 72">
              <path id="Path_79" data-name="Path 79" d="M123.522,150.009c7.179,7.316,26.83,28.516,38.687,26.161,10.147-2.015,29.65-12.52,33.795-14.738,3.233-1.73-10.294-23.455-14.864-21.116-7.274,3.722-14.149,11.014-22.061,13.173-3.236.883-11.38-5.205-30.737-10.646C120.85,140.738,118.486,144.877,123.522,150.009Z" fill="#ad6359"/>
              <g id="Group_71" data-name="Group 71">
                <path id="Path_80" data-name="Path 80" d="M192.322,130.856c3.889-1.263,8.248-3.023,12.528-2.831s7.69,5.936,7.648,7.555-1.919,11.674-6.2,11.564-1.5-7.8-1.635-8.694-.271-2.034-1.081-1.971-15.124,6.4-15.124,6.4Z" fill="#ad6359"/>
                <g id="Group_69" data-name="Group 69">
                  <path id="Path_81" data-name="Path 81" d="M192.58,131.454c.242.006,11.833-4.222,16.113-4.031s7.69,5.937,7.648,7.556-1.919,11.674-6.2,11.563-1.5-7.8-1.636-8.693-.27-2.034-1.081-1.972-15.123,6.4-15.123,6.4Z" fill="#ad6359"/>
                  <path id="Path_82" data-name="Path 82" d="M208.7,145.962a5.086,5.086,0,0,1-.647-2.548,8.778,8.778,0,0,1,.226-2.731,14.707,14.707,0,0,0,.581-2.342,4.728,4.728,0,0,0-.539-2.279c-.315-.609-.949-.42-1.495-.244a21.509,21.509,0,0,0-2.356.993c-.828.384-1.649.788-2.471,1.186a22.419,22.419,0,0,0-2.522,1.3c-.059.039-.024.142.049.118a22.831,22.831,0,0,0,2.2-.921c.823-.36,1.649-.715,2.479-1.059.775-.321,1.535-.684,2.315-.992a2.51,2.51,0,0,1,1.137-.309c.326.082.466.889.532,1.152a4.027,4.027,0,0,1-.208,2.311,12.116,12.116,0,0,0-.5,2.336,6.232,6.232,0,0,0,.121,2.236,8.83,8.83,0,0,0,.973,1.868C208.617,146.126,208.758,146.04,208.7,145.962Z" fill="#263238"/>
                </g>
                <g id="Group_70" data-name="Group 70">
                  <path id="Path_83" data-name="Path 83" d="M178.705,142.343s12.147-10.509,14.673-12.593c5.067-4.182,26.161-12.168,29.078-12.4s3.813,5.758-10.514,11.587c-7.551,3.072-8.99,7.314-8.909,9.688s2.229,6.849,6.218,6.844,6.725-5.755,10.4-6.307,1.088,6.1-1.6,9.91a24.449,24.449,0,0,1-10.941,8.093c-3.481,1.2-14.269,5.525-14.269,5.525Z" fill="#ad6359"/>
                  <path id="Path_84" data-name="Path 84" d="M214.27,142.793c-1.531,1.124-3.271,2.586-5.248,2.609-2.044.024-3.337-1.336-4.242-3.024a7.561,7.561,0,0,1-.9-5.54,9.273,9.273,0,0,1,2.847-4.4,22.523,22.523,0,0,1,5.493-3.454c.088-.042.015-.169-.076-.132-1.856.773-7.621,2.961-8.893,7.971a7.75,7.75,0,0,0,.966,5.646c.842,1.609,2.089,3.173,4.017,3.379,2.35.252,4.427-1.611,6.155-3C214.462,142.79,214.35,142.734,214.27,142.793Z" fill="#263238"/>
                </g>
              </g>
            </g>
            <g id="Group_75" data-name="Group 75">
              <path id="Path_85" data-name="Path 85" d="M176.19,142.406l13.237,25.98s-20.934,9.785-30.921,9.077-27.422-19.052-35.052-26.931-1.982-10.883,9.765-6.888,24.508,9.425,25.518,9.295S176.19,142.406,176.19,142.406Z" fill="#ffc727"/>
              <g id="Group_74" data-name="Group 74">
                <g id="Group_73" data-name="Group 73">
                  <path id="Path_86" data-name="Path 86" d="M171.815,145.965a28.526,28.526,0,0,0,1.3,3.167c.448,1.05.878,2.106,1.343,3.15.894,2.01,1.839,3.992,2.81,5.966a130.638,130.638,0,0,0,6.309,11.64c.049.078.179,0,.14-.081-1.894-4.057-3.98-8.021-5.964-12.035-.975-1.973-1.94-3.951-2.913-5.925-.486-.988-1-1.965-1.478-2.955a32.594,32.594,0,0,0-1.46-2.979C171.872,145.858,171.8,145.913,171.815,145.965Z" fill="#263238"/>
                </g>
              </g>
              <path id="Path_87" data-name="Path 87" d="M170.38,175.606a.819.819,0,0,1-.151.039c-.282.086-.565.161-.857.238-.132.037-.273.075-.415.113-.331.081-.652.162-.973.243-.2.054-.4.1-.6.145-.321.081-.653.153-.976.224-.029,0-.047.016-.075.019-.294.068-.589.125-.884.183-.608.128-1.2.233-1.782.328l-.1.013a25.391,25.391,0,0,1-4.111.347c-.331,0-.655-.013-.96-.032-9.985-.707-27.424-19.054-35.049-26.935a20.94,20.94,0,0,1-2.016-2.383c-.153-.205-.275-.394-.4-.583a10.23,10.23,0,0,1-.536-.974,2.056,2.056,0,0,1-.137-.305,2.562,2.562,0,0,1-.115-.287,1.552,1.552,0,0,1-.1-.281c-.032-.093-.054-.188-.075-.273a2.673,2.673,0,0,1-.054-.266v-.01a2.327,2.327,0,0,1,.691-2.274Z" opacity="0.1"/>
            </g>
          </g>
        </g>
        <g id="Group_79" data-name="Group 79">
          <path id="Path_88" data-name="Path 88" d="M145.144,204.574l-59.116,1.5s15.13-48.294,27.315-61.314c5.545-5.924,10.965-5.019,15.557-1.208,1.146.952,15.353,18.984,16.557,25.269,1.063,5.554-3.451,11.718-3.451,11.718Z" fill="#ebebeb"/>
          <g id="Group_78" data-name="Group 78">
            <path id="Path_89" data-name="Path 89" d="M133.493,178.834a48.78,48.78,0,0,0-7.111,1.234c-1.157.307-2.292.666-3.426,1.05-.565.192-1.133.364-1.705.534a7.678,7.678,0,0,1-1.831.362.043.043,0,0,0,0,.085,12.871,12.871,0,0,0,1.767-.048,12.679,12.679,0,0,0,1.681-.332c1.177-.3,2.339-.656,3.513-.968,2.367-.631,4.734-1.261,7.142-1.719C133.636,179.011,133.606,178.821,133.493,178.834Z" fill="#263238"/>
            <path id="Path_90" data-name="Path 90" d="M139.44,180.907a52.791,52.791,0,0,0-5.951-.234c-.995.021-1.98.1-2.969.2-.472.05-.944.109-1.414.173-.517.07-1.026.21-1.544.273-.054.007-.054.091,0,.086.49-.045.99-.008,1.483-.024s.989-.036,1.484-.053c.991-.032,1.981-.054,2.972-.1,1.982-.085,3.957-.149,5.941-.165C139.552,181.069,139.542,180.917,139.44,180.907Z" fill="#263238"/>
          </g>
          <path id="Path_91" data-name="Path 91" d="M118.316,141.15s5.755,32.516,5.8,34.179-4.739,37.91-4.739,37.91l-36.33-1.663s15.433-44.979,21.485-55.81C111.37,143.531,118.316,141.15,118.316,141.15Z" fill="#ffc727"/>
          <path id="Path_92" data-name="Path 92" d="M130.6,145.514s8.775,25.492,8.918,28.734,3.823,38.326,3.823,38.326L147.479,209l-5.113-28.336s4.489-5.708,3.45-11.569S130.6,145.514,130.6,145.514Z" fill="#ffc727"/>
        </g>
        <g id="Group_92" data-name="Group 92">
          <g id="Group_91" data-name="Group 91">
            <g id="Group_80" data-name="Group 80">
              <path id="Path_93" data-name="Path 93" d="M119.167,143.623c.262,1.037,5.356,7.708,10.112,7.4,1.549-.1,1.362-8.583,1.362-8.583l.129-.629,1.8-8.807-10.424-6.425-1.505-.848s-.335,2.442-.72,5.487c-.019.141-.038.282-.055.434-.027.171-.054.333-.071.494-.063.454-.126.919-.179,1.382-.042.353-.084.7-.115,1.067s-.071.735-.111,1.107A57.974,57.974,0,0,0,119.167,143.623Z" fill="#ad6359"/>
              <path id="Path_94" data-name="Path 94" d="M119.924,131.216a18.032,18.032,0,0,0,10.846,10.593l1.8-8.807-10.424-6.425-1.505-.848S120.309,128.171,119.924,131.216Z" fill="#263238"/>
            </g>
            <g id="Group_90" data-name="Group 90">
              <path id="Path_95" data-name="Path 95" d="M145.49,118.785c2.5,15.579-6.549,18.836-9.909,19.371-3.05.486-13.5,1.753-17.594-13.485s2.358-21.324,9.275-22.8S142.99,103.206,145.49,118.785Z" fill="#ad6359"/>
              <g id="Group_87" data-name="Group 87">
                <path id="Path_96" data-name="Path 96" d="M142.861,116.448a9.858,9.858,0,0,1-1.087-.077,1.758,1.758,0,0,1-1.094-.29.561.561,0,0,1-.093-.678,1.391,1.391,0,0,1,1.315-.51,2.042,2.042,0,0,1,1.37.541A.6.6,0,0,1,142.861,116.448Z" fill="#263238"/>
                <path id="Path_97" data-name="Path 97" d="M132.515,119.447a10.252,10.252,0,0,0,1.025-.369,1.761,1.761,0,0,0,.974-.575.561.561,0,0,0-.094-.679,1.39,1.39,0,0,0-1.4-.134,2.041,2.041,0,0,0-1.172.891A.6.6,0,0,0,132.515,119.447Z" fill="#263238"/>
                <g id="Group_82" data-name="Group 82">
                  <g id="Group_81" data-name="Group 81">
                    <path id="Path_98" data-name="Path 98" d="M135.144,121.387c-.015-.039-.075.064-.067.107.205,1.055.263,2.3-.64,2.806-.027.015-.016.068.019.057C135.6,124,135.507,122.354,135.144,121.387Z" fill="#263238"/>
                    <path id="Path_99" data-name="Path 99" d="M134.017,120.433c-1.726.146-1.306,3.589.294,3.453C135.885,123.753,135.465,120.31,134.017,120.433Z" fill="#263238"/>
                  </g>
                  <path id="Path_100" data-name="Path 100" d="M133.364,120.7c-.277.232-.53.612-.888.692-.415.092-.775-.23-1.091-.543-.033-.032-.059,0-.054.047.07.661.406,1.307,1.126,1.319.656.011,1.048-.63,1.131-1.313C133.6,120.773,133.475,120.6,133.364,120.7Z" fill="#263238"/>
                </g>
                <g id="Group_84" data-name="Group 84">
                  <g id="Group_83" data-name="Group 83">
                    <path id="Path_101" data-name="Path 101" d="M141.044,120.44c0-.042.089.041.093.085.088,1.071.369,2.283,1.375,2.527.031.008.034.062,0,.061C141.313,123.082,140.956,121.469,141.044,120.44Z" fill="#263238"/>
                    <path id="Path_102" data-name="Path 102" d="M141.87,119.216c1.7-.326,2.229,3.1.653,3.4C140.971,122.917,140.443,119.49,141.87,119.216Z" fill="#263238"/>
                  </g>
                  <path id="Path_103" data-name="Path 103" d="M142.62,119.332c.3.14.617.429.944.4.378-.033.6-.447.784-.839.019-.04.05-.016.059.029.118.653.007,1.368-.6,1.591-.557.2-1.065-.294-1.321-.923C142.435,119.474,142.5,119.275,142.62,119.332Z" fill="#263238"/>
                </g>
                <path id="Path_104" data-name="Path 104" d="M136.089,130.156c.275.231.558.557.949.56a2.832,2.832,0,0,0,1.131-.357.037.037,0,0,1,.05.051,1.445,1.445,0,0,1-1.315.686,1.144,1.144,0,0,1-.914-.884C135.968,130.152,136.048,130.122,136.089,130.156Z" fill="#263238"/>
                <g id="Group_85" data-name="Group 85">
                  <path id="Path_105" data-name="Path 105" d="M139.976,127.868a4.378,4.378,0,0,1-1.456,1.673,1.978,1.978,0,0,1-1.16.306c-.894-.055-1.069-.831-1.045-1.529a4.747,4.747,0,0,1,.178-1.1A5.673,5.673,0,0,0,139.976,127.868Z" fill="#263238"/>
                  <path id="Path_106" data-name="Path 106" d="M138.52,129.541a1.978,1.978,0,0,1-1.16.306c-.894-.055-1.069-.831-1.045-1.529A2.038,2.038,0,0,1,138.52,129.541Z" fill="#ff9bbc"/>
                </g>
                <g id="Group_86" data-name="Group 86">
                  <path id="Path_107" data-name="Path 107" d="M140.025,125.711s.433,1.561.534,2.311c.008.07-.168.128-.421.177-.012,0-.018.011-.029,0a3.6,3.6,0,0,1-3.642-.868c-.062-.067.023-.157.1-.119a5.424,5.424,0,0,0,3.381.5c.025-.215-.831-2.649-.713-2.674a6.584,6.584,0,0,1,1.755.158c-.807-3.278-2.133-6.4-2.887-9.675a.1.1,0,0,1,.189-.074,54.607,54.607,0,0,1,3.553,10.288C141.962,126.155,140.342,125.8,140.025,125.711Z" fill="#263238"/>
                </g>
              </g>
              <path id="Path_108" data-name="Path 108" d="M118.874,125.335c2.584-.061,2.41-6.025,2.41-6.025s5.212-.511,6.173-8.177a11.6,11.6,0,0,1-1.68,6.428s9.307-1.375,12.4-9.454c0,0-1.147,4.072-2.453,5.611a10.819,10.819,0,0,0,5.307-4.784s2.057,4.275,3.42,5.376c0,0-2.005-16.037-16.724-12.821,0,0-9.262,1.562-11.864,9.281S118.874,125.335,118.874,125.335Z" fill="#263238"/>
              <g id="Group_89" data-name="Group 89">
                <g id="Group_88" data-name="Group 88">
                  <path id="Path_109" data-name="Path 109" d="M118.88,130.42a3.318,3.318,0,0,0,.743.135,2.43,2.43,0,0,0,.743-.035,2.164,2.164,0,0,0,.886-.359,2.642,2.642,0,0,0,.561-.5,3.032,3.032,0,0,0,.532-.927l-1.176-4.141s-3.8-4.661-5.93-3.274S116.191,129.638,118.88,130.42Z" fill="#ad6359"/>
                  <path id="Path_110" data-name="Path 110" d="M116.172,123.279a.036.036,0,0,0-.009.071c1.889.611,2.979,2.242,3.783,3.956a1.472,1.472,0,0,0-2.227-.241c-.045.037.006.109.057.094a1.639,1.639,0,0,1,1.843.441,8,8,0,0,1,.969,1.394c.1.158.387.048.311-.136l-.018-.041C120.757,126.474,118.7,123.333,116.172,123.279Z" fill="#263238"/>
                </g>
                <path id="Path_111" data-name="Path 111" d="M119.051,129.741a.731.731,0,1,0,.508-.9A.73.73,0,0,0,119.051,129.741Z" fill="#fff"/>
                <path id="Path_112" data-name="Path 112" d="M117.472,128.75a.517.517,0,1,0,.36-.637A.518.518,0,0,0,117.472,128.75Z" fill="#fff"/>
              </g>
            </g>
          </g>
        </g>
        <g id="Group_101" data-name="Group 101">
          <g id="Group_97" data-name="Group 97">
            <path id="Path_113" data-name="Path 113" d="M108.076,149.162c-16.281,23.71-37.488,70.508-40.4,78.184-1.978,5.21,25.318,16.268,26.13,12.53,1.041-4.786,20.393-65.89,24.667-88.137C120.829,139.472,112.314,142.989,108.076,149.162Z" fill="#ad6359"/>
            <g id="Group_96" data-name="Group 96">
              <path id="Path_114" data-name="Path 114" d="M87.079,252.609c-5.571,6.8-8.044,7.687-9.7,15.919-1.086,5.4-5,7.027-6.615,1.528-2.638-8.994,2.707-19.272,5.586-22.3Z" fill="#ad6359"/>
              <g id="Group_93" data-name="Group 93">
                <path id="Path_115" data-name="Path 115" d="M96.334,229.337S94.74,241.7,89.521,249.529c-3.609,5.414-12.775,16.319-32.169,15.252-4.6-.253-10.975-3.875-3.312-6.191,5.443-1.645,9.392-1.043,12.384-2.576,0,0-7.563-5.571-7.129-10.169a84.957,84.957,0,0,1,1.988-11.936,17.819,17.819,0,0,1,2.267.172s.81-4.257,6.052-8.249Z" fill="#ad6359"/>
              </g>
              <path id="Path_116" data-name="Path 116" d="M85.251,254.146c-3.292.894-10.3,2.672-16.537,2.132-6.93-.6-20.116-3.622-19.621-8.732.364-3.747,5.5-3.036,5.5-3.036s-5.187-2.4-4.119-5.711c.974-3.02,4.914-2.231,4.914-2.231s-2.9-2-1.4-4.723c1.8-3.281,7.576,1.44,12.273-.307C67.316,231.146,85.251,254.146,85.251,254.146Z" fill="#ad6359"/>
              <g id="Group_94" data-name="Group 94">
                <path id="Path_117" data-name="Path 117" d="M70.568,249.063a27.707,27.707,0,0,1-15.917-4.421c-.117-.082-.117-.214,0-.162A68.224,68.224,0,0,0,70.574,249C70.612,249,70.6,249.059,70.568,249.063Z" fill="#263238"/>
              </g>
              <g id="Group_95" data-name="Group 95">
                <path id="Path_118" data-name="Path 118" d="M70.97,242.05c-2.819,0-10.536-1.508-15.625-5.361-.114-.087-.106-.219.014-.162a73.157,73.157,0,0,0,15.621,5.458C71.017,241.993,71.006,242.05,70.97,242.05Z" fill="#263238"/>
              </g>
            </g>
          </g>
          <path id="Path_119" data-name="Path 119" d="M67.573,221.774l30.621,12.5s17.639-66.26,20.154-79.312-1.808-16.544-11.785-4.572S67.573,221.774,67.573,221.774Z" fill="#ffc727"/>
          <g id="Group_99" data-name="Group 99">
            <g id="Group_98" data-name="Group 98">
              <path id="Path_120" data-name="Path 120" d="M72.874,217.1a28.418,28.418,0,0,0,3.078,1.5c1.033.487,2.056.991,3.1,1.462,2,.909,4.027,1.763,6.064,2.594a130.275,130.275,0,0,0,12.448,4.509c.088.026.135-.117.05-.153-4.11-1.774-8.3-3.352-12.452-5.034-2.039-.827-4.074-1.665-6.113-2.494-1.02-.415-2.05-.807-3.068-1.228A32.734,32.734,0,0,0,72.907,217C72.845,216.985,72.827,217.074,72.874,217.1Z" fill="#263238"/>
            </g>
          </g>
          <g id="Group_100" data-name="Group 100">
            <line id="Line_7" data-name="Line 7" y1="49.78" x2="12.624" transform="translate(103.976 162.789)" fill="none" stroke="#263238" stroke-miterlimit="10" stroke-width="1"/>
            <path id="Path_121" data-name="Path 121" d="M115.334,168.135a7.1,7.1,0,0,0,1.623-2.729" fill="none" stroke="#263238" stroke-miterlimit="10" stroke-width="0.5"/>
          </g>
        </g>
      </g>
    </g>
  </g>
</svg>
